<svg xmlns="http://www.w3.org/2000/svg" xmlns:xlink="http://www.w3.org/1999/xlink" width="48" height="48" viewBox="0 0 48 48">
  <defs>
    <clipPath id="clip-path">
      <rect id="Rectangle_331" data-name="Rectangle 331" width="48" height="48" transform="translate(893 5404)" fill="#d5ae82"/>
    </clipPath>
  </defs>
  <g id="Mask_Group_28" data-name="Mask Group 28" transform="translate(-893 -5404)" clip-path="url(#clip-path)">
    <g id="Group_17626" data-name="Group 17626" transform="translate(989.008 4313.082)">
      <path id="Path_16405" data-name="Path 16405" d="M38.389,8.143a1.785,1.785,0,0,0-1.821-1.669H34.242V4.249a1.792,1.792,0,0,0-1.77-1.77h-1.72a1.792,1.792,0,0,0-1.77,1.77V6.474H26.654a1.819,1.819,0,0,0-1.821,1.669l-.253,2.934h14.01Z" transform="translate(-103.644 1089.574)" fill="#d5ae82"/>
      <path id="Path_16406" data-name="Path 16406" d="M24.177,19.169a1.98,1.98,0,0,1,1.973-1.821H37.024A1.948,1.948,0,0,1,39,19.169l.2,2.327,4.957,1.264-.506-6.474A3.287,3.287,0,0,0,40.412,13.3H22.76a3.287,3.287,0,0,0-3.237,2.984l-.506,6.474L23.974,21.5Z" transform="translate(-103.644 1089.574)" fill="#d5ae82"/>
      <path id="Path_16407" data-name="Path 16407" d="M20.333,42.183a.643.643,0,0,0,.3.05,1.444,1.444,0,0,0,1.264-.809l.86-1.416a4.054,4.054,0,0,1,3.389-1.871,3.926,3.926,0,0,1,3.389,1.871l.86,1.366a1.472,1.472,0,0,0,1.264.809,1.511,1.511,0,0,0,1.264-.809l.86-1.416a3.989,3.989,0,0,1,3.389-1.871,4.054,4.054,0,0,1,3.389,1.871l.86,1.416a1.472,1.472,0,0,0,1.264.809h.1L48.96,28.071A1.622,1.622,0,0,0,47.9,25.846L35.1,22.659a14.2,14.2,0,0,0-7.132,0l-12.8,3.187a1.646,1.646,0,0,0-1.113,2.226Z" transform="translate(-103.644 1089.574)" fill="#d5ae82"/>
      <path id="Path_16408" data-name="Path 16408" d="M53.816,44.408a3.57,3.57,0,0,1-3.085-1.821l-.86-1.366a1.8,1.8,0,0,0-1.568-.86,1.862,1.862,0,0,0-1.568.86l-.86,1.366a3.631,3.631,0,0,1-3.085,1.821A3.57,3.57,0,0,1,39.7,42.588l-.86-1.366a1.8,1.8,0,0,0-1.568-.86,1.862,1.862,0,0,0-1.568.86l-.86,1.416a3.524,3.524,0,0,1-6.171,0l-.86-1.366a1.8,1.8,0,0,0-1.568-.86,1.862,1.862,0,0,0-1.568.86l-.86,1.416a3.524,3.524,0,0,1-6.171,0l-.86-1.366a1.8,1.8,0,0,0-1.568-.86,1.862,1.862,0,0,0-1.568.86l-.86,1.366A3.6,3.6,0,0,1,9.56,44.51,1.848,1.848,0,1,0,9.409,48.2a7.146,7.146,0,0,0,5.817-2.579A7.155,7.155,0,0,0,20.738,48.2a7.244,7.244,0,0,0,5.513-2.579A7.155,7.155,0,0,0,31.764,48.2a7.244,7.244,0,0,0,5.513-2.579A7.155,7.155,0,0,0,42.79,48.2,7.244,7.244,0,0,0,48.3,45.623,7.323,7.323,0,0,0,53.816,48.2a1.813,1.813,0,0,0,1.82-1.821,1.853,1.853,0,0,0-1.821-1.973Z" transform="translate(-103.644 1089.574)" fill="#d5ae82"/>
    </g>
  </g>
</svg>
